<?xml version="1.0" standalone="no"?><!DOCTYPE svg PUBLIC "-//W3C//DTD SVG 1.1//EN" "http://www.w3.org/Graphics/SVG/1.1/DTD/svg11.dtd"><svg t="1760173790671" class="icon" viewBox="0 0 1024 1024" version="1.1" xmlns="http://www.w3.org/2000/svg" p-id="6539" xmlns:xlink="http://www.w3.org/1999/xlink" width="200" height="200"><path d="M499.114667 503.808l-1.518934-432.3328c5.12-23.637333 35.771733-16.674133 46.916267 9.642667L773.973333 615.543467c11.2128 21.674667-5.768533 47.325867-29.166933 46.762666" p-id="6540"></path><path d="M797.166933 703.249067l-287.812266-145.408a19.899733 19.899733 0 0 0-19.114667 0l-289.058133 144.5376c-19.165867 9.728-39.953067-11.332267-30.378667-30.788267L478.429867 18.5344C486.365867 0.7168 512 0.682667 519.970133 18.466133l307.5072 654.0288c9.591467 19.387733-11.144533 40.379733-30.3104 30.754134z m-556.117333-70.6048L490.154667 506.026667c5.973333-3.242667 13.192533-3.2768 19.182933-0.034134l249.361067 126.0544L497.6128 80.0768 241.0496 632.644267z m139.9808 391.3728V749.124267h36.8128l142.4384 215.808V749.124267h34.4064v274.8928h-36.8128l-142.4384-216.0128v216.0128h-34.4064z" p-id="6541"></path></svg>